# xmcd
#
# Track frame offsets: 
#        150
#        30468
#        54763
#        74853
#        98270
#        121518
#        148260
#        185490
#        208028
#        234035
#        252740
#        272845
#
# Disc length: 3959 seconds
#
# Revision: 0
# Processed by: cddbd v1.5.2PL0 Copyright (c) Steve Scherf et al.
# Submitted via: ExactAudioCopy v1.0b3
#
DISCID=a60f750c
DTITLE=Thien Trang - Ngay Em 20 Tuoi
DYEAR=1990
DGENRE=
TTITLE0=Ngay em hai muoi tuoi
TTITLE1=Hanh phuc lang thang
TTITLE2=Tinh nong chay
TTITLE3=Yeu mot minh
TTITLE4=Hue da xa roi
TTITLE5=Ke chuyen trong dem
TTITLE6=Chi hai dua minh thoi nhe
TTITLE7=Canh hoa yeu
TTITLE8=Buon trong ky niem
TTITLE9=Xe hoa mot chuyen
TTITLE10=Nua manh tinh sau
TTITLE11=Giot sau trinh nu
EXTD=
EXTT0=
EXTT1=
EXTT2=
EXTT3=
EXTT4=
EXTT5=
EXTT6=
EXTT7=
EXTT8=
EXTT9=
EXTT10=
EXTT11=
PLAYORDER=
